<?xml version="1.0" encoding="UTF-8" standalone="no"?>
<!-- Created with Inkscape (http://www.inkscape.org/) -->

<svg
   width="300mm"
   height="100mm"
   viewBox="0 0 300 100"
   version="1.1"
   id="svg1"
   xml:space="preserve"
   inkscape:version="1.3.2 (091e20e, 2023-11-25, custom)"
   sodipodi:docname="bannerAnimado_1.svg"
   inkscape:export-filename="bannerAnimado_1.png"
   inkscape:export-xdpi="96"
   inkscape:export-ydpi="96"
   xmlns:inkscape="http://www.inkscape.org/namespaces/inkscape"
   xmlns:sodipodi="http://sodipodi.sourceforge.net/DTD/sodipodi-0.dtd"
   xmlns="http://www.w3.org/2000/svg"
   xmlns:svg="http://www.w3.org/2000/svg"><sodipodi:namedview
     id="namedview1"
     pagecolor="#cd77ff"
     bordercolor="#000000"
     borderopacity="0.25"
     inkscape:showpageshadow="2"
     inkscape:pageopacity="0.0"
     inkscape:pagecheckerboard="0"
     inkscape:deskcolor="#d1d1d1"
     inkscape:document-units="mm"
     inkscape:zoom="0.48907828"
     inkscape:cx="547.96954"
     inkscape:cy="138.01472"
     inkscape:window-width="1366"
     inkscape:window-height="745"
     inkscape:window-x="-8"
     inkscape:window-y="-8"
     inkscape:window-maximized="1"
     inkscape:current-layer="layer1"
     inkscape:export-bgcolor="#cd75ffff" /><defs
     id="defs1"><inkscape:perspective
       sodipodi:type="inkscape:persp3d"
       inkscape:vp_x="-7.5737705 : 45.672131 : 1"
       inkscape:vp_y="0 : 1000 : 0"
       inkscape:vp_z="269.16394 : 52.704918 : 1"
       inkscape:persp3d-origin="140.2623 : 27.923497 : 1"
       id="perspective14" /><inkscape:path-effect
       effect="bspline"
       id="path-effect4"
       is_visible="true"
       lpeversion="1.3"
       weight="33.333333"
       steps="2"
       helper_size="0"
       apply_no_weight="true"
       apply_with_weight="true"
       only_selected="false"
       uniform="false" /><inkscape:path-effect
       effect="bspline"
       id="path-effect3"
       is_visible="true"
       lpeversion="1.3"
       weight="33.333333"
       steps="2"
       helper_size="0"
       apply_no_weight="true"
       apply_with_weight="true"
       only_selected="false"
       uniform="false" /><inkscape:path-effect
       effect="bspline"
       id="path-effect2"
       is_visible="true"
       lpeversion="1.3"
       weight="33.333333"
       steps="2"
       helper_size="0"
       apply_no_weight="true"
       apply_with_weight="true"
       only_selected="false"
       uniform="false" /></defs><g
     inkscape:groupmode="layer"
     id="layer3"
     inkscape:label="fondo"
     style="mix-blend-mode:darken"><path
       style="fill:#ffff00;fill-opacity:1;fill-rule:evenodd;stroke:#ffff00;stroke-width:1.99999;stroke-opacity:1"
       d="M 63.953335,58.082707 C 81.969108,39.309279 89.482238,1.0744871 89.482238,1.0744871 L 1.0224483,1.0529324 1.0543806,98.291762 c 0,0 49.7155134,-26.471182 62.8989544,-40.209055 z"
       id="path11"
       sodipodi:nodetypes="scccs" /><path
       style="fill:#00ff00;fill-opacity:1;fill-rule:evenodd;stroke:#00ff00;stroke-width:1.99999;stroke-opacity:1"
       d="M 81.513661,99.035631 163.64754,99.000001 174.73771,1.3524602 94.976433,1.0819692 c 0,0 -4.519602,27.1036818 -8.735505,40.1273848 -1.827913,5.64676 -4.209746,11.148298 -7.126582,16.317363 C 70.827247,72.212681 49.897532,98.82514 49.897532,98.82514 Z"
       id="path12"
       sodipodi:nodetypes="ccccaacc" /><path
       sodipodi:type="star"
       style="fill:#008000;fill-rule:evenodd;stroke:#008000;stroke-width:1.99999"
       id="path13"
       inkscape:flatsided="false"
       sodipodi:sides="5"
       sodipodi:cx="16.770493"
       sodipodi:cy="61.672131"
       sodipodi:r1="46.414375"
       sodipodi:r2="23.207186"
       sodipodi:arg1="0.36968429"
       sodipodi:arg2="0.99800282"
       inkscape:rounded="0"
       inkscape:randomized="0"
       d="M 60.049181,78.442622 29.348365,81.175223 14.194657,108.01498 2.108726,79.661185 -28.100149,73.543092 -4.8688497,53.286885 -8.3852539,22.665943 18.05841,38.50071 46.094028,25.694019 39.205812,55.73665 Z"
       inkscape:transform-center-x="-0.11797384"
       inkscape:transform-center-y="2.2124828"
       transform="matrix(0.12695326,-0.50267794,0.51202657,0.14063147,-5.3114049,56.65155)" /><g
       inkscape:label="Capa 1"
       inkscape:groupmode="layer"
       id="layer1"><text
         xml:space="preserve"
         style="font-style:normal;font-variant:normal;font-weight:normal;font-stretch:normal;font-size:23.4839px;font-family:'Liberation Mono';-inkscape-font-specification:'Liberation Mono, Normal';font-variant-ligatures:normal;font-variant-caps:normal;font-variant-numeric:normal;font-variant-east-asian:normal;fill:#800080;fill-opacity:1;fill-rule:evenodd;stroke:#800080;stroke-width:1.9686;stroke-opacity:1"
         x="9.8941889"
         y="19.641691"
         id="text1"
         transform="scale(0.66592649,1.5016673)"><tspan
           sodipodi:role="line"
           id="tspan1"
           x="9.8941889"
           y="19.641691"
           style="font-style:normal;font-variant:normal;font-weight:normal;font-stretch:normal;font-size:23.4839px;font-family:'Liberation Mono';-inkscape-font-specification:'Liberation Mono, Normal';font-variant-ligatures:normal;font-variant-caps:normal;font-variant-numeric:normal;font-variant-east-asian:normal;fill:#800080;fill-opacity:1;stroke:#800080;stroke-width:1.9686;stroke-opacity:1">Mercados Antiguos SL</tspan></text><g
         id="g12"
         transform="matrix(1.2007383,0,0,1.1959551,121.16006,-83.782035)"><path
           style="fill:#000000;stroke-width:0.264583"
           d="m 67.325837,89.512763 c 15.365084,1.785155 30.730166,3.570309 46.095243,5.355463"
           id="path2"
           inkscape:path-effect="#path-effect2"
           inkscape:original-d="m 67.325837,89.512763 c 15.365084,1.785155 30.730166,3.570309 46.095243,5.355463" /><path
           style="fill:#000000;stroke-width:0.264583"
           d="m 71.533704,85.113632 c 12.68735,1.785154 25.3747,3.570308 38.062046,5.355462"
           id="path3"
           inkscape:path-effect="#path-effect3"
           inkscape:original-d="m 71.533704,85.113632 c 12.68735,1.785154 25.3747,3.570308 38.062046,5.355462" /><path
           style="fill:none;fill-opacity:1;stroke:#4d004d;stroke-width:2;stroke-dasharray:none;stroke-opacity:1"
           d="m 69.429772,83.200964 c 14.153726,2.167688 28.307164,4.335332 40.452838,2.837046 12.14568,-1.498287 22.2826,-6.662377 32.41973,-11.826575"
           id="path4"
           inkscape:path-effect="#path-effect4"
           inkscape:original-d="m 69.429772,83.200964 c 14.153726,2.167688 28.307164,4.335332 42.461178,6.503064 10.13734,-5.164304 20.27426,-10.328396 30.41139,-15.492593"
           sodipodi:nodetypes="ccc" /><path
           style="fill:#4d004d;fill-opacity:1;fill-rule:evenodd;stroke:#4d004d;stroke-width:1;stroke-dasharray:none;stroke-opacity:1"
           d="m 92.372949,86.422131 14.741801,60.184419 18.12295,-64.106552 -7.91233,2.545422 -9.14279,1.663917 -8.10034,0.261642 z"
           id="path5"
           sodipodi:nodetypes="ccccccc" /><g
           id="g10"><path
             style="fill:#008000;fill-opacity:1;stroke:#008000;stroke-width:1;stroke-dasharray:none"
             d="m 142.58924,75.8372 c 0,0 -0.46198,6.785271 -2.10394,10.137131 -1.25195,2.555711 -5.92925,6.598696 -5.92925,6.598696 l 1.18195,-0.91982 c 3.00102,-2.335452 11.15474,10.674413 11.15474,10.674413 l -5.35547,-19.413555"
             id="path6"
             sodipodi:nodetypes="cscscc" /></g><path
           style="fill:#ffff00;fill-opacity:1;stroke:#ffff00;stroke-width:1;stroke-dasharray:none"
           d="m 133.88661,93.338093 c 0,0 -2.87351,2.903607 -4.86462,4.145224 -2.23574,1.394164 -7.66334,3.792343 -7.66334,3.792343 l -1.10667,4.16855 7.86183,9.31574 c 0,0 -0.17951,-7.78229 0.23489,-11.47167 0.27138,-2.41604 1.8806,-6.726664 1.8806,-6.726664"
           id="path7"
           sodipodi:nodetypes="cscccsc" /><path
           style="fill:#ff0000;fill-opacity:1;stroke:#ff0000;stroke-width:1;stroke-dasharray:none"
           d="m 95.821122,105.67479 0.225391,1.91082 -0.277974,10.44709 c 0,0 -2.237329,-10.47326 -6.829576,-11.78411 -2.349744,-0.67073 -5.583686,-1.34778 -7.459398,-1.4345 0,0 6.207687,1.04712 9.553319,1.29578 1.597079,0.1187 4.788238,-0.43508 4.788238,-0.43508 z"
           id="path8"
           sodipodi:nodetypes="cccscsc" /><path
           style="fill:#008000;fill-opacity:1;stroke:#008000;stroke-width:1;stroke-dasharray:none"
           d="m 82.435897,107.87435 c 0,0 3.557934,4.20605 5.096576,6.48947 2.071277,3.07388 -0.494575,12.10782 -0.494575,12.10782 0,0 5.57513,-7.21826 8.564571,-5.95048 2.186126,1.47623 4.712051,2.91142 4.712051,2.91142 0,0 -8.94583,-5.5192 -12.499951,-9.24842 -2.061694,-2.16327 -5.378672,-6.30981 -5.378672,-6.30981 z"
           id="path9"
           sodipodi:nodetypes="cscccsc" /><path
           style="fill:#ff0000;fill-opacity:1;stroke:#ff0000;stroke-width:1;stroke-dasharray:none"
           d="m 113.22982,129.10495 c 0,0 2.8526,1.51506 4.38747,1.98503 1.58087,0.48406 4.88896,0.83614 4.88896,0.83614 0,0 0.11602,0.0477 -1.53013,-0.19126 -2.53532,-0.36807 -5.64236,6.3118 -5.64236,6.3118 0,0 1.46745,-6.10689 -0.43036,-7.88974 -0.60369,-0.56712 -1.67358,-1.05197 -1.67358,-1.05197 z"
           id="path10"
           sodipodi:nodetypes="cscscsc" /><text
           xml:space="preserve"
           style="font-style:normal;font-variant:normal;font-weight:bold;font-stretch:normal;font-size:14.6488px;font-family:'Liberation Mono';-inkscape-font-specification:'Liberation Mono, Bold';font-variant-ligatures:normal;font-variant-caps:normal;font-variant-numeric:normal;font-variant-east-asian:normal;fill:#e6e6e6;fill-opacity:1;stroke:none;stroke-width:9.22756;stroke-dasharray:none"
           x="86.438889"
           y="116.945"
           id="text11"
           transform="scale(1.1402867,0.87697242)"><tspan
             id="tspan11"
             style="font-style:normal;font-variant:normal;font-weight:bold;font-stretch:normal;font-size:14.6488px;font-family:'Liberation Mono';-inkscape-font-specification:'Liberation Mono, Bold';font-variant-ligatures:normal;font-variant-caps:normal;font-variant-numeric:normal;font-variant-east-asian:normal;fill:#e6e6e6;stroke:none;stroke-width:9.22756;stroke-dasharray:none"
             x="86.438889"
             y="116.945"
             sodipodi:role="line">M</tspan></text><text
           xml:space="preserve"
           style="font-style:italic;font-variant:normal;font-weight:bold;font-stretch:normal;font-size:13.417px;font-family:'Liberation Mono';-inkscape-font-specification:'Liberation Mono, Bold Italic';font-variant-ligatures:normal;font-variant-caps:normal;font-variant-numeric:normal;font-variant-east-asian:normal;fill:#e6e6e6;fill-opacity:1;stroke:none;stroke-width:8.45166;stroke-dasharray:none"
           x="102.62241"
           y="113.0935"
           id="text12"
           transform="scale(1.0444034,0.95748443)"><tspan
             sodipodi:role="line"
             id="tspan12"
             style="font-style:italic;font-variant:normal;font-weight:bold;font-stretch:normal;font-size:13.417px;font-family:'Liberation Mono';-inkscape-font-specification:'Liberation Mono, Bold Italic';font-variant-ligatures:normal;font-variant-caps:normal;font-variant-numeric:normal;font-variant-east-asian:normal;stroke-width:8.45166"
             x="102.62241"
             y="113.0935">A</tspan></text></g></g><path
       sodipodi:type="star"
       style="fill:#ffff00;fill-rule:evenodd;stroke:#ffff00;stroke-width:1.99999"
       id="path14"
       inkscape:flatsided="false"
       sodipodi:sides="5"
       sodipodi:cx="16.770493"
       sodipodi:cy="61.672131"
       sodipodi:r1="46.414375"
       sodipodi:r2="23.207186"
       sodipodi:arg1="0.36968429"
       sodipodi:arg2="0.99800282"
       inkscape:rounded="0"
       inkscape:randomized="0"
       d="M 60.049181,78.442622 29.348365,81.175223 14.194657,108.01498 2.108726,79.661185 -28.100149,73.543092 -4.8688497,53.286885 -8.3852539,22.665943 18.05841,38.50071 46.094028,25.694019 39.205812,55.73665 Z"
       inkscape:transform-center-x="-1.7495535"
       inkscape:transform-center-y="-0.53743302"
       transform="matrix(0.47064807,-0.23553343,0.22623201,0.50412449,86.861654,36.782174)" /><g
       sodipodi:type="inkscape:box3d"
       id="g14"
       style="fill:#008080;fill-rule:evenodd;stroke:#ffffff;stroke-width:1;stroke-dasharray:none"
       inkscape:perspectiveID="#perspective14"
       inkscape:corner0="0.0078949177 : 0.0036838377 : 0 : 1"
       inkscape:corner7="-0.29291551 : -0.011153654 : 0.25 : 1"><path
         sodipodi:type="inkscape:box3dside"
         id="path20"
         style="fill:#008080;fill-rule:evenodd;stroke:#ffffff;stroke-width:1;stroke-linejoin:round;stroke-dasharray:none"
         inkscape:box3dsidetype="11"
         d="m 164.95296,64.111357 54.22493,3.074937 V 82.689097 L 164.95296,75.90685 Z"
         points="219.17789,67.186294 219.17789,82.689097 164.95296,75.90685 164.95296,64.111357 " /><path
         sodipodi:type="inkscape:box3dside"
         id="path15"
         style="fill:#008080;fill-rule:evenodd;stroke:#ffffff;stroke-width:1;stroke-linejoin:round;stroke-dasharray:none"
         inkscape:box3dsidetype="6"
         d="M 139.10429,68.282494 V 83.003763 L 164.95296,75.90685 V 64.111357 Z"
         points="139.10429,83.003763 164.95296,75.90685 164.95296,64.111357 139.10429,68.282494 " /><path
         sodipodi:type="inkscape:box3dside"
         id="path19"
         style="fill:#008080;fill-rule:evenodd;stroke:#ffffff;stroke-width:1;stroke-linejoin:round;stroke-dasharray:none"
         inkscape:box3dsidetype="13"
         d="M 139.10429,83.003763 201.5046,95.203165 219.17789,82.689097 164.95296,75.90685 Z"
         points="201.5046,95.203165 219.17789,82.689097 164.95296,75.90685 139.10429,83.003763 " /><path
         sodipodi:type="inkscape:box3dside"
         id="path16"
         style="fill:#008080;fill-rule:evenodd;stroke:#ffffff;stroke-width:1;stroke-linejoin:round;stroke-dasharray:none"
         inkscape:box3dsidetype="5"
         d="m 139.10429,68.282494 62.40031,5.936628 17.67329,-7.032828 -54.22493,-3.074937 z"
         points="201.5046,74.219122 219.17789,67.186294 164.95296,64.111357 139.10429,68.282494 " /><path
         sodipodi:type="inkscape:box3dside"
         id="path18"
         style="fill:#008080;fill-rule:evenodd;stroke:#ffffff;stroke-width:1;stroke-linejoin:round;stroke-dasharray:none"
         inkscape:box3dsidetype="14"
         d="M 201.5046,74.219122 V 95.203165 L 219.17789,82.689097 V 67.186294 Z"
         points="201.5046,95.203165 219.17789,82.689097 219.17789,67.186294 201.5046,74.219122 " /><path
         sodipodi:type="inkscape:box3dside"
         id="path17"
         style="fill:#008080;fill-rule:evenodd;stroke:#ffffff;stroke-width:1;stroke-linejoin:round;stroke-dasharray:none"
         inkscape:box3dsidetype="3"
         d="m 139.10429,68.282494 62.40031,5.936628 V 95.203165 L 139.10429,83.003763 Z"
         points="201.5046,74.219122 201.5046,95.203165 139.10429,83.003763 139.10429,68.282494 " /></g><text
       xml:space="preserve"
       style="font-size:16.4463px;font-family:'Liberation Mono';-inkscape-font-specification:'Liberation Mono, Normal';fill:#ffffff;fill-rule:evenodd;stroke:#ffffff;stroke-width:0.689336;stroke-dasharray:none"
       x="170.01169"
       y="59.88776"
       id="text32"
       transform="matrix(0.92495584,0.11217469,-0.1292147,1.0654621,0,0)"><tspan
         sodipodi:role="line"
         id="tspan32"
         style="fill:#ffffff;stroke:#ffffff;stroke-width:0.689336"
         x="170.01169"
         y="59.88776">+Info</tspan></text></g></svg>
