<?xml version="1.0" encoding="UTF-8" standalone="no"?>
<!-- Created with Inkscape (http://www.inkscape.org/) -->

<svg
   width="150mm"
   height="150mm"
   viewBox="0 0 150 150"
   version="1.1"
   id="svg1"
   inkscape:version="1.3.2 (091e20e, 2023-11-25, custom)"
   sodipodi:docname="logo.svg"
   inkscape:export-filename="logo.png"
   inkscape:export-xdpi="96"
   inkscape:export-ydpi="96"
   xmlns:inkscape="http://www.inkscape.org/namespaces/inkscape"
   xmlns:sodipodi="http://sodipodi.sourceforge.net/DTD/sodipodi-0.dtd"
   xmlns="http://www.w3.org/2000/svg"
   xmlns:svg="http://www.w3.org/2000/svg">
  <sodipodi:namedview
     id="namedview1"
     pagecolor="#ffffff"
     bordercolor="#ffffff"
     borderopacity="0"
     inkscape:showpageshadow="2"
     inkscape:pageopacity="0.0"
     inkscape:pagecheckerboard="0"
     inkscape:deskcolor="#d1d1d1"
     inkscape:document-units="mm"
     inkscape:zoom="0.35355339"
     inkscape:cx="130.10765"
     inkscape:cy="470.93312"
     inkscape:window-width="1366"
     inkscape:window-height="745"
     inkscape:window-x="-8"
     inkscape:window-y="-8"
     inkscape:window-maximized="1"
     inkscape:current-layer="g12" />
  <defs
     id="defs1">
    <inkscape:path-effect
       effect="bspline"
       id="path-effect4"
       is_visible="true"
       lpeversion="1.3"
       weight="33.333333"
       steps="2"
       helper_size="0"
       apply_no_weight="true"
       apply_with_weight="true"
       only_selected="false"
       uniform="false" />
    <inkscape:path-effect
       effect="bspline"
       id="path-effect3"
       is_visible="true"
       lpeversion="1.3"
       weight="33.333333"
       steps="2"
       helper_size="0"
       apply_no_weight="true"
       apply_with_weight="true"
       only_selected="false"
       uniform="false" />
    <inkscape:path-effect
       effect="bspline"
       id="path-effect2"
       is_visible="true"
       lpeversion="1.3"
       weight="33.333333"
       steps="2"
       helper_size="0"
       apply_no_weight="true"
       apply_with_weight="true"
       only_selected="false"
       uniform="false" />
  </defs>
  <g
     inkscape:label="Capa 1"
     inkscape:groupmode="layer"
     id="layer1">
    <g
       id="g12"
       transform="matrix(1.7837958,0,0,1.7726405,-86.435899,-65.827844)">
      <g
         id="g1"
         transform="translate(-16.781174,-32.084878)">
        <path
           style="fill:#000000;stroke-width:0.264583"
           d="m 67.325837,89.512763 c 15.365084,1.785155 30.730166,3.570309 46.095243,5.355463"
           id="path2"
           inkscape:path-effect="#path-effect2"
           inkscape:original-d="m 67.325837,89.512763 c 15.365084,1.785155 30.730166,3.570309 46.095243,5.355463" />
        <path
           style="fill:#000000;stroke-width:0.264583"
           d="m 71.533704,85.113632 c 12.68735,1.785154 25.3747,3.570308 38.062046,5.355462"
           id="path3"
           inkscape:path-effect="#path-effect3"
           inkscape:original-d="m 71.533704,85.113632 c 12.68735,1.785154 25.3747,3.570308 38.062046,5.355462" />
        <path
           style="fill:none;fill-opacity:1;stroke:#4d004d;stroke-width:2;stroke-dasharray:none;stroke-opacity:1"
           d="m 69.429772,83.200964 c 14.153726,2.167688 28.307164,4.335332 40.452838,2.837046 12.14568,-1.498287 22.2826,-6.662377 32.41973,-11.826575"
           id="path4"
           inkscape:path-effect="#path-effect4"
           inkscape:original-d="m 69.429772,83.200964 c 14.153726,2.167688 28.307164,4.335332 42.461178,6.503064 10.13734,-5.164304 20.27426,-10.328396 30.41139,-15.492593"
           sodipodi:nodetypes="ccc" />
        <path
           style="fill:#4d004d;fill-opacity:1;fill-rule:evenodd;stroke:#4d004d;stroke-width:1;stroke-dasharray:none;stroke-opacity:1"
           d="m 92.372949,86.422131 14.741801,60.184419 18.12295,-64.106552 -7.91233,2.545422 -9.14279,1.663917 -8.10034,0.261642 z"
           id="path5"
           sodipodi:nodetypes="ccccccc" />
        <g
           id="g10">
          <path
             style="fill:#008000;fill-opacity:1;stroke:#008000;stroke-width:1;stroke-dasharray:none"
             d="m 142.58924,75.8372 c 0,0 -0.46198,6.785271 -2.10394,10.137131 -1.25195,2.555711 -5.92925,6.598696 -5.92925,6.598696 l 1.18195,-0.91982 c 3.00102,-2.335452 11.15474,10.674413 11.15474,10.674413 l -5.35547,-19.413555"
             id="path6"
             sodipodi:nodetypes="cscscc" />
        </g>
        <path
           style="fill:#ffff00;fill-opacity:1;stroke:#ffff00;stroke-width:1;stroke-dasharray:none"
           d="m 133.88661,93.338093 c 0,0 -2.87351,2.903607 -4.86462,4.145224 -2.23574,1.394164 -7.66334,3.792343 -7.66334,3.792343 l -1.10667,4.16855 7.86183,9.31574 c 0,0 -0.17951,-7.78229 0.23489,-11.47167 0.27138,-2.41604 1.8806,-6.726664 1.8806,-6.726664"
           id="path7"
           sodipodi:nodetypes="cscccsc" />
        <path
           style="fill:#ff0000;fill-opacity:1;stroke:#ff0000;stroke-width:1;stroke-dasharray:none"
           d="m 95.821122,105.67479 0.225391,1.91082 -0.277974,10.44709 c 0,0 -2.237329,-10.47326 -6.829576,-11.78411 -2.349744,-0.67073 -5.583686,-1.34778 -7.459398,-1.4345 0,0 6.207687,1.04712 9.553319,1.29578 1.597079,0.1187 4.788238,-0.43508 4.788238,-0.43508 z"
           id="path8"
           sodipodi:nodetypes="cccscsc" />
        <path
           style="fill:#008000;fill-opacity:1;stroke:#008000;stroke-width:1;stroke-dasharray:none"
           d="m 82.435897,107.87435 c 0,0 3.557934,4.20605 5.096576,6.48947 2.071277,3.07388 -0.494575,12.10782 -0.494575,12.10782 0,0 5.57513,-7.21826 8.564571,-5.95048 2.186126,1.47623 4.712051,2.91142 4.712051,2.91142 0,0 -8.94583,-5.5192 -12.499951,-9.24842 -2.061694,-2.16327 -5.378672,-6.30981 -5.378672,-6.30981 z"
           id="path9"
           sodipodi:nodetypes="cscccsc" />
        <path
           style="fill:#ff0000;fill-opacity:1;stroke:#ff0000;stroke-width:1;stroke-dasharray:none"
           d="m 113.22982,129.10495 c 0,0 2.8526,1.51506 4.38747,1.98503 1.58087,0.48406 4.88896,0.83614 4.88896,0.83614 0,0 0.11602,0.0477 -1.53013,-0.19126 -2.53532,-0.36807 -5.64236,6.3118 -5.64236,6.3118 0,0 1.46745,-6.10689 -0.43036,-7.88974 -0.60369,-0.56712 -1.67358,-1.05197 -1.67358,-1.05197 z"
           id="path10"
           sodipodi:nodetypes="cscscsc" />
        <text
           xml:space="preserve"
           style="font-style:normal;font-variant:normal;font-weight:bold;font-stretch:normal;font-size:14.6488px;font-family:'Liberation Mono';-inkscape-font-specification:'Liberation Mono, Bold';font-variant-ligatures:normal;font-variant-caps:normal;font-variant-numeric:normal;font-variant-east-asian:normal;fill:#e6e6e6;fill-opacity:1;stroke:none;stroke-width:9.22756;stroke-dasharray:none"
           x="86.438889"
           y="116.945"
           id="text11"
           transform="scale(1.1402867,0.87697242)"><tspan
             id="tspan11"
             style="font-style:normal;font-variant:normal;font-weight:bold;font-stretch:normal;font-size:14.6488px;font-family:'Liberation Mono';-inkscape-font-specification:'Liberation Mono, Bold';font-variant-ligatures:normal;font-variant-caps:normal;font-variant-numeric:normal;font-variant-east-asian:normal;fill:#e6e6e6;stroke:none;stroke-width:9.22756;stroke-dasharray:none"
             x="86.438889"
             y="116.945"
             sodipodi:role="line">M</tspan></text>
        <text
           xml:space="preserve"
           style="font-style:italic;font-variant:normal;font-weight:bold;font-stretch:normal;font-size:13.417px;font-family:'Liberation Mono';-inkscape-font-specification:'Liberation Mono, Bold Italic';font-variant-ligatures:normal;font-variant-caps:normal;font-variant-numeric:normal;font-variant-east-asian:normal;fill:#e6e6e6;fill-opacity:1;stroke:none;stroke-width:8.45166;stroke-dasharray:none"
           x="102.62241"
           y="113.0935"
           id="text12"
           transform="scale(1.0444034,0.95748443)"><tspan
             sodipodi:role="line"
             id="tspan12"
             style="font-style:italic;font-variant:normal;font-weight:bold;font-stretch:normal;font-size:13.417px;font-family:'Liberation Mono';-inkscape-font-specification:'Liberation Mono, Bold Italic';font-variant-ligatures:normal;font-variant-caps:normal;font-variant-numeric:normal;font-variant-east-asian:normal;stroke-width:8.45166"
             x="102.62241"
             y="113.0935">A</tspan></text>
      </g>
    </g>
  </g>
</svg>
